<svg fill="#000000" height="200px" width="200px" version="1.1" id="Layer_1" xmlns="http://www.w3.org/2000/svg" xmlns:xlink="http://www.w3.org/1999/xlink" viewBox="0 0 512 512" xml:space="preserve"><g id="SVGRepo_bgCarrier" stroke-width="0"></g><g id="SVGRepo_tracerCarrier" stroke-linecap="round" stroke-linejoin="round"></g><g id="SVGRepo_iconCarrier"> <g> <g> <path d="M416,405.333h-10.667v-74.667c0-5.888-4.779-10.667-10.667-10.667h-32v-53.333c0-5.888-4.779-10.667-10.667-10.667 h-16.939l-36.395-36.395v-48.939c0-15.872-8.811-29.589-21.717-36.949L266.624,9.771C266.176,4.245,261.547,0,256,0 s-10.176,4.245-10.624,9.771l-10.325,123.947c-12.907,7.36-21.717,21.077-21.717,36.949v48.896L176.896,256H160 c-5.888,0-10.667,4.779-10.667,10.667V320h-32c-5.888,0-10.667,4.779-10.667,10.667v74.667H96 c-5.888,0-10.667,4.779-10.667,10.667v85.333C85.333,507.221,90.112,512,96,512s10.667-4.779,10.667-10.667v-74.667h106.667 v74.667c0,5.888,4.779,10.667,10.667,10.667s10.667-4.779,10.667-10.667v-160h42.667v160c0,5.888,4.779,10.667,10.667,10.667 s10.667-4.779,10.667-10.667v-74.667h106.667v74.667c0,5.888,4.779,10.667,10.667,10.667c5.888,0,10.667-4.779,10.667-10.667V416 C426.667,410.112,421.888,405.333,416,405.333z M234.667,170.667c0-11.776,9.579-21.333,21.333-21.333s21.333,9.557,21.333,21.333 v42.688h-42.667V170.667z M228.395,234.667h55.168L304.896,256h-97.835L228.395,234.667z M213.333,405.333H128v-64h85.333V405.333 z M170.667,320v-42.667h10.603c0.021,0,0.043,0,0.064,0h160V320H170.667z M384,405.333h-85.333v-64H384V405.333z"></path> </g> </g> </g></svg>